<?xml version="1.0" standalone="no"?>
<!DOCTYPE svg PUBLIC "-//W3C//DTD SVG 20010904//EN"
 "http://www.w3.org/TR/2001/REC-SVG-20010904/DTD/svg10.dtd">
<svg version="1.0" xmlns="http://www.w3.org/2000/svg"
 width="512.000000pt" height="512.000000pt" viewBox="0 0 512.000000 512.000000"
 preserveAspectRatio="xMidYMid meet">
<metadata>
Created by potrace 1.11, written by Peter Selinger 2001-2013
</metadata>
<g transform="translate(0.000000,512.000000) scale(0.100000,-0.100000)"
fill="#000000" stroke="none">
<path d="M2639 4710 c-4 -3 -10 -658 -12 -1465 -1 -803 -6 -1469 -9 -1481 -3
-12 -9 -45 -13 -75 -10 -90 -53 -256 -86 -334 -103 -248 -276 -373 -523 -380
-72 -1 -109 2 -202 19 -46 9 -113 34 -162 61 -25 14 -46 25 -48 25 -2 0 -4
-106 -4 -235 l0 -235 28 -11 c106 -41 204 -54 377 -53 133 1 190 7 260 27 22
6 42 11 45 12 82 19 219 89 305 154 261 199 438 544 491 956 3 28 9 59 12 70
3 11 8 679 9 1485 l4 1465 -232 0 c-127 0 -235 -2 -240 -5z"/>
</g>
</svg>
